<svg id="Layer_1" data-name="Layer 1" xmlns="http://www.w3.org/2000/svg" viewBox="0 0 823.19 602.18"><defs><style>.cls-1{fill:#036;}</style></defs><path class="cls-1" d="M256.18,760.51a40.58,40.58,0,0,0,40.59,40.58H708.21a40.58,40.58,0,0,0,40.58-40.58s7.5-61.13,0-96S687.69,558,603.63,552c-65.09-4.69-70.24,20.6-101.14,20.6s-42.61-20.93-98.34-20.6c-98.65.58-141.88,87-148,109.9s0,98.63,0,98.63Z" transform="translate(-88.41 -198.91)"/><path class="cls-1" d="M211.54,680s4.37-40.58,35-84.29,65.55-60.56,65.55-60.56S292.71,512,215.91,512c-108.63,0-126.12,62.43-126.12,62.43s-3.12,49,0,75.55S121,680,121,680Z" transform="translate(-88.41 -198.91)"/><path class="cls-1" d="M788.13,680s-4-40.58-34.64-84.29-65.55-60.56-65.55-60.56S707.29,512,784.09,512c108.63,0,126.12,62.43,126.12,62.43s3.12,49,0,75.55S879,680,879,680Z" transform="translate(-88.41 -198.91)"/><circle class="cls-1" cx="406.59" cy="154.53" r="154.53"/><circle class="cls-1" cx="111.83" cy="204.63" r="78.2"/><circle class="cls-1" cx="711.36" cy="204.63" r="78.2"/></svg>