<svg id="Layer_1" data-name="Layer 1" xmlns="http://www.w3.org/2000/svg" viewBox="0 0 861.03 513.63"><defs><style>.cls-1{fill:#036;}</style></defs><path class="cls-1" d="M92.57,421.66l351,102a202.74,202.74,0,0,0,111.94.32L905,424.65c33.88-9.63,34.09-57.58.29-67.49L533.1,248a117.94,117.94,0,0,0-67.14.2L92.31,360.24C61.74,369.41,61.93,412.76,92.57,421.66Z" transform="translate(-69.49 -243.18)"/><path class="cls-1" d="M261.6,516.74l180.48,54.69a200.87,200.87,0,0,0,116.31.07l181.43-54.76,18.32,163.91s-58,76.17-258.64,76.17-255.26-76.17-255.26-76.17Z" transform="translate(-69.49 -243.18)"/><path class="cls-1" d="M203,453.75s-29.64,15.75-25.31,49,2.41,74.72,2.41,74.72L215.8,732.71s-11.09,24.11-53.51,24.11-66-23.63-66-23.63l37.12-154.26s12.78-39.29,4.82-75.2,21.91-62.45,21.91-62.45Z" transform="translate(-69.49 -243.18)"/><ellipse class="cls-1" cx="86.53" cy="295.49" rx="43.87" ry="42.18"/></svg>