<svg id="Layer_1" data-name="Layer 1" xmlns="http://www.w3.org/2000/svg" viewBox="0 0 794.65 564.17"><defs><style>.cls-1{fill:#036;}.cls-2{fill:#fff;}</style></defs><path class="cls-1" d="M102.68,338.1a44.3,44.3,0,0,1,50.06-44c32.73,4.36,81.52,7.6,146.46,3.37,131.22-8.54,311.88-84.22,433.34-79.34,68.42,2.75,112.05,15,137.1,25.16a44.33,44.33,0,0,1,27.68,41.12v388a44.22,44.22,0,0,1-55,42.91C817.33,709.08,782.7,704,736.2,704,616,704,370.61,782.09,251.6,782.09c-68.47,0-107.45-15-128.2-27.65a43.89,43.89,0,0,1-20.72-37.54Z" transform="translate(-102.68 -217.91)"/><ellipse class="cls-2" cx="397.32" cy="282.09" rx="101.05" ry="130.77"/><path class="cls-2" d="M174.31,360.35v63.17s26.86-1.53,44.4-19.23,18.13-43.94,18.13-43.94Z" transform="translate(-102.68 -217.91)"/><path class="cls-2" d="M174,709.75h63.17s-1.52-26.86-19.22-44.4S174,647.22,174,647.22Z" transform="translate(-102.68 -217.91)"/><path class="cls-2" d="M834.07,281.69H770.9s1.52,26.85,19.22,44.4,44,18.13,44,18.13Z" transform="translate(-102.68 -217.91)"/><path class="cls-2" d="M833.75,631.09V567.92s-26.86,1.52-44.4,19.22-18.13,44-18.13,44Z" transform="translate(-102.68 -217.91)"/></svg>