<svg id="Layer_1" data-name="Layer 1" xmlns="http://www.w3.org/2000/svg" viewBox="0 0 812.79 863.06"><defs><style>.cls-1{fill:#036;}.cls-2{fill:#fff;}</style></defs><circle class="cls-1" cx="275.04" cy="465.74" r="222.39"/><circle class="cls-2" cx="275.04" cy="465.74" r="86.67"/><rect class="cls-1" x="308.9" y="701.28" width="119.5" height="110.64" rx="7.18" transform="translate(-481.56 1056.77) rotate(-90)"/><rect class="cls-1" x="308.9" y="256.49" width="119.5" height="110.64" rx="7.18" transform="translate(-36.77 611.99) rotate(-90)"/><rect class="cls-1" x="498.82" y="362.65" width="119.5" height="110.64" rx="7.18" transform="translate(1157.68 432.2) rotate(150)"/><rect class="cls-1" x="110.63" y="586.77" width="119.5" height="110.64" rx="7.18" transform="matrix(-0.87, 0.5, -0.5, -0.87, 545.38, 1044.51)"/><rect class="cls-1" x="498.82" y="586.77" width="119.5" height="110.64" rx="7.18" transform="translate(627.65 1408.98) rotate(-150)"/><rect class="cls-1" x="110.63" y="362.65" width="119.5" height="110.64" rx="7.18" transform="translate(15.34 796.67) rotate(-150)"/><circle class="cls-1" cx="584.68" cy="152.81" r="120.45"/><circle class="cls-2" cx="584.68" cy="152.81" r="46.94"/><rect class="cls-1" x="645.92" y="311.76" width="64.72" height="59.92" rx="7.18" transform="translate(242.95 951.53) rotate(-90)"/><rect class="cls-1" x="645.92" y="70.87" width="64.72" height="59.92" rx="7.18" transform="translate(483.85 710.64) rotate(-90)"/><rect class="cls-1" x="748.78" y="128.36" width="64.72" height="59.92" rx="7.18" transform="translate(1443.19 -163.6) rotate(150)"/><rect class="cls-1" x="538.54" y="249.75" width="64.72" height="59.92" rx="7.18" transform="translate(1111.56 168.02) rotate(150)"/><rect class="cls-1" x="748.78" y="249.75" width="64.72" height="59.92" rx="7.18" transform="translate(1224.17 844.04) rotate(-150)"/><rect class="cls-1" x="538.54" y="128.36" width="64.72" height="59.92" rx="7.18" transform="translate(892.55 512.42) rotate(-150)"/><circle class="cls-1" cx="669.55" cy="710.26" r="120.45"/><circle class="cls-2" cx="669.55" cy="710.26" r="46.94"/><rect class="cls-1" x="730.8" y="869.21" width="64.72" height="59.92" rx="7.18" transform="translate(-229.62 1593.86) rotate(-90)"/><rect class="cls-1" x="730.8" y="628.31" width="64.72" height="59.92" rx="7.18" transform="translate(11.28 1352.97) rotate(-90)"/><rect class="cls-1" x="833.66" y="685.81" width="64.72" height="59.92" rx="7.18" transform="translate(1880.3 834.18) rotate(150)"/><rect class="cls-1" x="623.42" y="807.2" width="64.72" height="59.92" rx="7.18" transform="translate(1548.68 1165.8) rotate(150)"/><rect class="cls-1" x="833.66" y="807.2" width="64.72" height="59.92" rx="7.18" transform="translate(1103.83 1926.7) rotate(-150)"/><rect class="cls-1" x="623.42" y="685.81" width="64.72" height="59.92" rx="7.18" transform="translate(772.21 1595.08) rotate(-150)"/></svg>