<svg id="Layer_1" data-name="Layer 1" xmlns="http://www.w3.org/2000/svg" viewBox="0 0 496 662.15"><defs><style>.cls-1{fill:#036;}.cls-2{fill:#fff;}</style></defs><path class="cls-1" d="M516.24,160.3H278.76A26.76,26.76,0,0,0,252,187.06V795.54a26.76,26.76,0,0,0,26.76,26.76H721.24A26.76,26.76,0,0,0,748,795.54V395.06a26.76,26.76,0,0,0-26.76-26.76H569.76A26.76,26.76,0,0,1,543,341.54V187.06A26.76,26.76,0,0,0,516.24,160.3Z" transform="translate(-252 -160.15)"/><path class="cls-1" d="M586,175.16V313.32a14.85,14.85,0,0,0,14.71,15H733.19c13,0,19.63-15.95,10.53-25.44L611.24,164.7C602,155.08,586,161.73,586,175.16Z" transform="translate(-252 -160.15)"/><rect class="cls-2" x="124" y="302.15" width="247" height="42" rx="21"/><rect class="cls-2" x="124" y="384.51" width="247" height="42" rx="21"/><rect class="cls-2" x="124" y="462.51" width="247" height="42" rx="21"/></svg>